<svg width="1440" height="786" viewBox="0 0 1440 786" fill="none" xmlns="http://www.w3.org/2000/svg">
<path d="M1473.17 530L1521 135.546C1521 135.546 1219.86 29.986 1102.26 30C934.445 30.02 785.87 175.18 572.237 155.452C439.748 143.218 366.692 18.5227 158.374 46.5563C64.4379 59.1973 -153 120.225 -153 120.225L-93.4583 530H1473.17Z" fill="#AFDD7D"/>
<path d="M-13 417H1452V725H-13V417Z" fill="#AFDD7D"/>
<path d="M1470 725C1436.72 762.381 1403.39 762.429 1370 725.144C1336.72 762.525 1303.39 762.573 1270 725.288C1236.72 762.669 1203.39 762.717 1170 725.432C1136.72 762.813 1103.39 762.861 1070 725.576C1036.72 762.957 1003.39 763.005 969.999 725.72C936.719 763.101 903.386 763.149 869.999 725.864C836.719 763.245 803.386 763.293 769.999 726.008C736.72 763.389 703.386 763.437 669.999 726.152C636.72 763.533 603.386 763.581 569.999 726.296C536.72 763.677 503.386 763.725 469.999 726.44C436.72 763.821 403.387 763.869 370 726.584C336.72 763.965 303.387 764.013 270 726.728C236.72 764.109 203.387 764.157 170 726.872C136.72 764.253 103.387 764.301 69.9999 727.016C36.7203 764.397 3.38709 764.445 -30 727.16M1470 695C1436.72 732.381 1403.39 732.429 1370 695.144C1336.72 732.525 1303.39 732.573 1270 695.288C1236.72 732.669 1203.39 732.717 1170 695.432C1136.72 732.813 1103.39 732.861 1070 695.576C1036.72 732.957 1003.39 733.005 969.999 695.72C936.719 733.101 903.386 733.149 869.999 695.864C836.719 733.245 803.386 733.293 769.999 696.008C736.72 733.389 703.386 733.437 669.999 696.152C636.72 733.533 603.386 733.581 569.999 696.296C536.72 733.677 503.386 733.725 469.999 696.44C436.72 733.821 403.387 733.869 370 696.584C336.72 733.965 303.387 734.013 270 696.728C236.72 734.109 203.387 734.157 170 696.872C136.72 734.253 103.387 734.301 69.9999 697.016C36.7203 734.397 3.38709 734.445 -30 697.16M1521 135.546L1473.17 530H-93.4583L-153 120.225C-153 120.225 64.4379 59.1973 158.374 46.5563C366.692 18.5227 439.748 143.218 572.237 155.452C785.87 175.18 934.445 30.02 1102.26 30C1219.86 29.986 1521 135.546 1521 135.546ZM-13 417H1452V725H-13V417Z" stroke="#AFDD7D" stroke-width="60"/>
</svg>
